<mxfile host="app.diagrams.net" agent="Mozilla/5.0 (Windows NT 10.0; Win64; x64) AppleWebKit/537.36 (KHTML, like Gecko) Chrome/137.0.0.0 Safari/537.36 Edg/137.0.0.0" version="27.1.6">
  <diagram name="Page-1" id="f8Q2nklgQzUOl9IBvRn9">
    <mxGraphModel dx="1034" dy="570" grid="1" gridSize="10" guides="1" tooltips="1" connect="1" arrows="1" fold="1" page="1" pageScale="1" pageWidth="850" pageHeight="1100" math="0" shadow="0">
      <root>
        <mxCell id="0" />
        <mxCell id="1" parent="0" />
        <mxCell id="mFtWhAYYBlTWNr71ApfE-11" value="" style="edgeStyle=orthogonalEdgeStyle;rounded=0;orthogonalLoop=1;jettySize=auto;html=1;" parent="1" source="mFtWhAYYBlTWNr71ApfE-2" target="mFtWhAYYBlTWNr71ApfE-7" edge="1">
          <mxGeometry relative="1" as="geometry" />
        </mxCell>
        <mxCell id="mFtWhAYYBlTWNr71ApfE-2" value="start" style="ellipse;whiteSpace=wrap;html=1;" parent="1" vertex="1">
          <mxGeometry x="345" y="30" width="120" height="70" as="geometry" />
        </mxCell>
        <mxCell id="mFtWhAYYBlTWNr71ApfE-10" value="" style="edgeStyle=orthogonalEdgeStyle;rounded=0;orthogonalLoop=1;jettySize=auto;html=1;" parent="1" source="mFtWhAYYBlTWNr71ApfE-7" target="mFtWhAYYBlTWNr71ApfE-9" edge="1">
          <mxGeometry relative="1" as="geometry" />
        </mxCell>
        <mxCell id="mFtWhAYYBlTWNr71ApfE-7" value="Input&lt;div&gt;var1 = a,&amp;nbsp;&lt;span style=&quot;background-color: transparent; color: light-dark(rgb(0, 0, 0), rgb(255, 255, 255));&quot;&gt;var2 = b&lt;/span&gt;&lt;/div&gt;" style="shape=parallelogram;perimeter=parallelogramPerimeter;whiteSpace=wrap;html=1;fixedSize=1;" parent="1" vertex="1">
          <mxGeometry x="300" y="180" width="210" height="60" as="geometry" />
        </mxCell>
        <mxCell id="mFtWhAYYBlTWNr71ApfE-13" value="" style="edgeStyle=orthogonalEdgeStyle;rounded=0;orthogonalLoop=1;jettySize=auto;html=1;" parent="1" source="mFtWhAYYBlTWNr71ApfE-9" target="mFtWhAYYBlTWNr71ApfE-12" edge="1">
          <mxGeometry relative="1" as="geometry" />
        </mxCell>
        <mxCell id="mFtWhAYYBlTWNr71ApfE-9" value="var1 = var2,&lt;div&gt;&amp;nbsp;var2 = var1&lt;/div&gt;" style="rounded=0;whiteSpace=wrap;html=1;" parent="1" vertex="1">
          <mxGeometry x="330" y="320" width="150" height="60" as="geometry" />
        </mxCell>
        <mxCell id="mFtWhAYYBlTWNr71ApfE-16" value="" style="edgeStyle=orthogonalEdgeStyle;rounded=0;orthogonalLoop=1;jettySize=auto;html=1;" parent="1" source="mFtWhAYYBlTWNr71ApfE-12" target="mFtWhAYYBlTWNr71ApfE-14" edge="1">
          <mxGeometry relative="1" as="geometry" />
        </mxCell>
        <mxCell id="mFtWhAYYBlTWNr71ApfE-12" value="print var1, var2" style="shape=parallelogram;perimeter=parallelogramPerimeter;whiteSpace=wrap;html=1;fixedSize=1;" parent="1" vertex="1">
          <mxGeometry x="345" y="450" width="120" height="60" as="geometry" />
        </mxCell>
        <mxCell id="mFtWhAYYBlTWNr71ApfE-14" value="end" style="ellipse;whiteSpace=wrap;html=1;" parent="1" vertex="1">
          <mxGeometry x="345" y="600" width="120" height="80" as="geometry" />
        </mxCell>
        <mxCell id="mFtWhAYYBlTWNr71ApfE-25" value="" style="edgeStyle=orthogonalEdgeStyle;rounded=0;orthogonalLoop=1;jettySize=auto;html=1;" parent="1" source="mFtWhAYYBlTWNr71ApfE-17" target="mFtWhAYYBlTWNr71ApfE-18" edge="1">
          <mxGeometry relative="1" as="geometry" />
        </mxCell>
        <mxCell id="mFtWhAYYBlTWNr71ApfE-17" value="start" style="ellipse;whiteSpace=wrap;html=1;" parent="1" vertex="1">
          <mxGeometry x="365" y="830" width="120" height="80" as="geometry" />
        </mxCell>
        <mxCell id="mFtWhAYYBlTWNr71ApfE-20" value="" style="edgeStyle=orthogonalEdgeStyle;rounded=0;orthogonalLoop=1;jettySize=auto;html=1;" parent="1" source="mFtWhAYYBlTWNr71ApfE-18" target="mFtWhAYYBlTWNr71ApfE-19" edge="1">
          <mxGeometry relative="1" as="geometry" />
        </mxCell>
        <mxCell id="mFtWhAYYBlTWNr71ApfE-18" value="input num1 ,&lt;div&gt;input num 2&lt;/div&gt;" style="shape=parallelogram;perimeter=parallelogramPerimeter;whiteSpace=wrap;html=1;fixedSize=1;" parent="1" vertex="1">
          <mxGeometry x="365" y="960" width="120" height="60" as="geometry" />
        </mxCell>
        <mxCell id="mFtWhAYYBlTWNr71ApfE-22" value="" style="edgeStyle=orthogonalEdgeStyle;rounded=0;orthogonalLoop=1;jettySize=auto;html=1;" parent="1" source="mFtWhAYYBlTWNr71ApfE-19" target="mFtWhAYYBlTWNr71ApfE-21" edge="1">
          <mxGeometry relative="1" as="geometry" />
        </mxCell>
        <mxCell id="mFtWhAYYBlTWNr71ApfE-19" value="sum = num1 + num2" style="whiteSpace=wrap;html=1;" parent="1" vertex="1">
          <mxGeometry x="365" y="1100" width="120" height="60" as="geometry" />
        </mxCell>
        <mxCell id="mFtWhAYYBlTWNr71ApfE-24" value="" style="edgeStyle=orthogonalEdgeStyle;rounded=0;orthogonalLoop=1;jettySize=auto;html=1;" parent="1" source="mFtWhAYYBlTWNr71ApfE-21" target="mFtWhAYYBlTWNr71ApfE-23" edge="1">
          <mxGeometry relative="1" as="geometry" />
        </mxCell>
        <mxCell id="mFtWhAYYBlTWNr71ApfE-21" value="print sum" style="shape=parallelogram;perimeter=parallelogramPerimeter;whiteSpace=wrap;html=1;fixedSize=1;" parent="1" vertex="1">
          <mxGeometry x="365" y="1240" width="120" height="60" as="geometry" />
        </mxCell>
        <mxCell id="mFtWhAYYBlTWNr71ApfE-23" value="end" style="ellipse;whiteSpace=wrap;html=1;" parent="1" vertex="1">
          <mxGeometry x="385" y="1370" width="80" height="60" as="geometry" />
        </mxCell>
        <mxCell id="mFtWhAYYBlTWNr71ApfE-28" value="" style="edgeStyle=orthogonalEdgeStyle;rounded=0;orthogonalLoop=1;jettySize=auto;html=1;" parent="1" source="mFtWhAYYBlTWNr71ApfE-26" target="mFtWhAYYBlTWNr71ApfE-27" edge="1">
          <mxGeometry relative="1" as="geometry" />
        </mxCell>
        <mxCell id="mFtWhAYYBlTWNr71ApfE-26" value="start" style="ellipse;whiteSpace=wrap;html=1;" parent="1" vertex="1">
          <mxGeometry x="365" y="1520" width="120" height="80" as="geometry" />
        </mxCell>
        <mxCell id="mFtWhAYYBlTWNr71ApfE-30" value="" style="edgeStyle=orthogonalEdgeStyle;rounded=0;orthogonalLoop=1;jettySize=auto;html=1;" parent="1" source="mFtWhAYYBlTWNr71ApfE-27" target="mFtWhAYYBlTWNr71ApfE-29" edge="1">
          <mxGeometry relative="1" as="geometry" />
        </mxCell>
        <mxCell id="mFtWhAYYBlTWNr71ApfE-27" value="input radius" style="shape=parallelogram;perimeter=parallelogramPerimeter;whiteSpace=wrap;html=1;fixedSize=1;" parent="1" vertex="1">
          <mxGeometry x="365" y="1690" width="120" height="60" as="geometry" />
        </mxCell>
        <mxCell id="mFtWhAYYBlTWNr71ApfE-35" value="" style="edgeStyle=orthogonalEdgeStyle;rounded=0;orthogonalLoop=1;jettySize=auto;html=1;" parent="1" source="mFtWhAYYBlTWNr71ApfE-29" target="mFtWhAYYBlTWNr71ApfE-31" edge="1">
          <mxGeometry relative="1" as="geometry" />
        </mxCell>
        <mxCell id="mFtWhAYYBlTWNr71ApfE-29" value="area = 2 x Pi x radius" style="whiteSpace=wrap;html=1;" parent="1" vertex="1">
          <mxGeometry x="365" y="1830" width="120" height="60" as="geometry" />
        </mxCell>
        <mxCell id="mFtWhAYYBlTWNr71ApfE-34" value="" style="edgeStyle=orthogonalEdgeStyle;rounded=0;orthogonalLoop=1;jettySize=auto;html=1;" parent="1" source="mFtWhAYYBlTWNr71ApfE-31" target="mFtWhAYYBlTWNr71ApfE-33" edge="1">
          <mxGeometry relative="1" as="geometry" />
        </mxCell>
        <mxCell id="mFtWhAYYBlTWNr71ApfE-31" value="print Area" style="shape=parallelogram;perimeter=parallelogramPerimeter;whiteSpace=wrap;html=1;fixedSize=1;" parent="1" vertex="1">
          <mxGeometry x="365" y="1970" width="120" height="60" as="geometry" />
        </mxCell>
        <mxCell id="mFtWhAYYBlTWNr71ApfE-33" value="end" style="ellipse;whiteSpace=wrap;html=1;" parent="1" vertex="1">
          <mxGeometry x="385" y="2100" width="80" height="60" as="geometry" />
        </mxCell>
        <mxCell id="s9vKMt6mHFvQ5tbUXA-M-9" value="" style="edgeStyle=orthogonalEdgeStyle;rounded=0;orthogonalLoop=1;jettySize=auto;html=1;" edge="1" parent="1" source="mFtWhAYYBlTWNr71ApfE-36" target="s9vKMt6mHFvQ5tbUXA-M-2">
          <mxGeometry relative="1" as="geometry" />
        </mxCell>
        <mxCell id="mFtWhAYYBlTWNr71ApfE-36" value="start" style="ellipse;whiteSpace=wrap;html=1;" parent="1" vertex="1">
          <mxGeometry x="360" y="2280" width="120" height="80" as="geometry" />
        </mxCell>
        <mxCell id="s9vKMt6mHFvQ5tbUXA-M-1" value="" style="edgeStyle=orthogonalEdgeStyle;rounded=0;orthogonalLoop=1;jettySize=auto;html=1;entryX=0.5;entryY=0;entryDx=0;entryDy=0;" edge="1" parent="1" source="s9vKMt6mHFvQ5tbUXA-M-2" target="s9vKMt6mHFvQ5tbUXA-M-15">
          <mxGeometry relative="1" as="geometry">
            <mxPoint x="420" y="2520" as="targetPoint" />
          </mxGeometry>
        </mxCell>
        <mxCell id="s9vKMt6mHFvQ5tbUXA-M-2" value="input num1" style="shape=parallelogram;perimeter=parallelogramPerimeter;whiteSpace=wrap;html=1;fixedSize=1;" vertex="1" parent="1">
          <mxGeometry x="360" y="2430" width="120" height="60" as="geometry" />
        </mxCell>
        <mxCell id="s9vKMt6mHFvQ5tbUXA-M-5" value="" style="edgeStyle=orthogonalEdgeStyle;rounded=0;orthogonalLoop=1;jettySize=auto;html=1;" edge="1" parent="1" source="s9vKMt6mHFvQ5tbUXA-M-6" target="s9vKMt6mHFvQ5tbUXA-M-7">
          <mxGeometry relative="1" as="geometry" />
        </mxCell>
        <mxCell id="s9vKMt6mHFvQ5tbUXA-M-6" value="print factorial" style="shape=parallelogram;perimeter=parallelogramPerimeter;whiteSpace=wrap;html=1;fixedSize=1;" vertex="1" parent="1">
          <mxGeometry x="360" y="2950" width="120" height="60" as="geometry" />
        </mxCell>
        <mxCell id="s9vKMt6mHFvQ5tbUXA-M-7" value="end" style="ellipse;whiteSpace=wrap;html=1;" vertex="1" parent="1">
          <mxGeometry x="380" y="3080" width="80" height="60" as="geometry" />
        </mxCell>
        <mxCell id="s9vKMt6mHFvQ5tbUXA-M-13" value="" style="edgeStyle=orthogonalEdgeStyle;rounded=0;orthogonalLoop=1;jettySize=auto;html=1;" edge="1" parent="1" source="s9vKMt6mHFvQ5tbUXA-M-11" target="s9vKMt6mHFvQ5tbUXA-M-12">
          <mxGeometry relative="1" as="geometry" />
        </mxCell>
        <mxCell id="s9vKMt6mHFvQ5tbUXA-M-20" style="edgeStyle=orthogonalEdgeStyle;rounded=0;orthogonalLoop=1;jettySize=auto;html=1;entryX=0;entryY=0.5;entryDx=0;entryDy=0;" edge="1" parent="1" source="s9vKMt6mHFvQ5tbUXA-M-11" target="s9vKMt6mHFvQ5tbUXA-M-6">
          <mxGeometry relative="1" as="geometry">
            <mxPoint x="210" y="2970" as="targetPoint" />
            <Array as="points">
              <mxPoint x="220" y="2700" />
              <mxPoint x="220" y="2980" />
            </Array>
          </mxGeometry>
        </mxCell>
        <mxCell id="s9vKMt6mHFvQ5tbUXA-M-11" value="if&lt;div&gt;&amp;nbsp;i &amp;lt;= num1&lt;/div&gt;" style="rhombus;whiteSpace=wrap;html=1;" vertex="1" parent="1">
          <mxGeometry x="380" y="2660" width="80" height="80" as="geometry" />
        </mxCell>
        <mxCell id="s9vKMt6mHFvQ5tbUXA-M-18" value="" style="edgeStyle=orthogonalEdgeStyle;rounded=0;orthogonalLoop=1;jettySize=auto;html=1;" edge="1" parent="1" source="s9vKMt6mHFvQ5tbUXA-M-12" target="s9vKMt6mHFvQ5tbUXA-M-17">
          <mxGeometry relative="1" as="geometry" />
        </mxCell>
        <mxCell id="s9vKMt6mHFvQ5tbUXA-M-12" value="&lt;div&gt;&lt;span style=&quot;background-color: transparent; color: light-dark(rgb(0, 0, 0), rgb(255, 255, 255));&quot;&gt;factorial&amp;nbsp; = factorial *i&lt;/span&gt;&lt;/div&gt;" style="whiteSpace=wrap;html=1;" vertex="1" parent="1">
          <mxGeometry x="360" y="2830" width="120" height="60" as="geometry" />
        </mxCell>
        <mxCell id="s9vKMt6mHFvQ5tbUXA-M-16" value="" style="edgeStyle=orthogonalEdgeStyle;rounded=0;orthogonalLoop=1;jettySize=auto;html=1;" edge="1" parent="1" source="s9vKMt6mHFvQ5tbUXA-M-15" target="s9vKMt6mHFvQ5tbUXA-M-11">
          <mxGeometry relative="1" as="geometry" />
        </mxCell>
        <mxCell id="s9vKMt6mHFvQ5tbUXA-M-15" value="i = 1&lt;div&gt;factorial = 1&lt;/div&gt;" style="rounded=0;whiteSpace=wrap;html=1;" vertex="1" parent="1">
          <mxGeometry x="360" y="2560" width="120" height="60" as="geometry" />
        </mxCell>
        <mxCell id="s9vKMt6mHFvQ5tbUXA-M-19" style="edgeStyle=orthogonalEdgeStyle;rounded=0;orthogonalLoop=1;jettySize=auto;html=1;entryX=1;entryY=0.5;entryDx=0;entryDy=0;" edge="1" parent="1" source="s9vKMt6mHFvQ5tbUXA-M-17" target="s9vKMt6mHFvQ5tbUXA-M-11">
          <mxGeometry relative="1" as="geometry">
            <Array as="points">
              <mxPoint x="680" y="2700" />
            </Array>
          </mxGeometry>
        </mxCell>
        <mxCell id="s9vKMt6mHFvQ5tbUXA-M-17" value="i = i +1" style="rounded=1;whiteSpace=wrap;html=1;" vertex="1" parent="1">
          <mxGeometry x="620" y="2740" width="120" height="60" as="geometry" />
        </mxCell>
        <mxCell id="s9vKMt6mHFvQ5tbUXA-M-22" value="yes" style="text;html=1;align=center;verticalAlign=middle;resizable=0;points=[];autosize=1;strokeColor=none;fillColor=none;" vertex="1" parent="1">
          <mxGeometry x="420" y="2748" width="40" height="30" as="geometry" />
        </mxCell>
        <mxCell id="s9vKMt6mHFvQ5tbUXA-M-23" value="no" style="text;html=1;align=center;verticalAlign=middle;resizable=0;points=[];autosize=1;strokeColor=none;fillColor=none;" vertex="1" parent="1">
          <mxGeometry x="310" y="2658" width="40" height="30" as="geometry" />
        </mxCell>
        <mxCell id="s9vKMt6mHFvQ5tbUXA-M-25" value="" style="edgeStyle=orthogonalEdgeStyle;rounded=0;orthogonalLoop=1;jettySize=auto;html=1;" edge="1" parent="1" source="s9vKMt6mHFvQ5tbUXA-M-26" target="s9vKMt6mHFvQ5tbUXA-M-28">
          <mxGeometry relative="1" as="geometry" />
        </mxCell>
        <mxCell id="s9vKMt6mHFvQ5tbUXA-M-26" value="start" style="ellipse;whiteSpace=wrap;html=1;" vertex="1" parent="1">
          <mxGeometry x="360" y="3240" width="120" height="80" as="geometry" />
        </mxCell>
        <mxCell id="s9vKMt6mHFvQ5tbUXA-M-27" value="" style="edgeStyle=orthogonalEdgeStyle;rounded=0;orthogonalLoop=1;jettySize=auto;html=1;entryX=0.5;entryY=0;entryDx=0;entryDy=0;" edge="1" parent="1" source="s9vKMt6mHFvQ5tbUXA-M-28" target="s9vKMt6mHFvQ5tbUXA-M-37">
          <mxGeometry relative="1" as="geometry">
            <mxPoint x="420" y="3480" as="targetPoint" />
          </mxGeometry>
        </mxCell>
        <mxCell id="s9vKMt6mHFvQ5tbUXA-M-28" value="input num1" style="shape=parallelogram;perimeter=parallelogramPerimeter;whiteSpace=wrap;html=1;fixedSize=1;" vertex="1" parent="1">
          <mxGeometry x="360" y="3390" width="120" height="60" as="geometry" />
        </mxCell>
        <mxCell id="s9vKMt6mHFvQ5tbUXA-M-32" value="" style="edgeStyle=orthogonalEdgeStyle;rounded=0;orthogonalLoop=1;jettySize=auto;html=1;" edge="1" parent="1" source="s9vKMt6mHFvQ5tbUXA-M-33">
          <mxGeometry relative="1" as="geometry">
            <mxPoint x="420" y="3790" as="targetPoint" />
          </mxGeometry>
        </mxCell>
        <mxCell id="s9vKMt6mHFvQ5tbUXA-M-33" value="for&lt;div&gt;&amp;nbsp;i &amp;lt;= num1&lt;/div&gt;" style="rhombus;whiteSpace=wrap;html=1;" vertex="1" parent="1">
          <mxGeometry x="380" y="3620" width="80" height="80" as="geometry" />
        </mxCell>
        <mxCell id="s9vKMt6mHFvQ5tbUXA-M-36" value="" style="edgeStyle=orthogonalEdgeStyle;rounded=0;orthogonalLoop=1;jettySize=auto;html=1;" edge="1" parent="1" source="s9vKMt6mHFvQ5tbUXA-M-37" target="s9vKMt6mHFvQ5tbUXA-M-33">
          <mxGeometry relative="1" as="geometry" />
        </mxCell>
        <mxCell id="s9vKMt6mHFvQ5tbUXA-M-37" value="i = 1&lt;div&gt;count = 0&lt;/div&gt;" style="rounded=0;whiteSpace=wrap;html=1;" vertex="1" parent="1">
          <mxGeometry x="360" y="3521" width="120" height="60" as="geometry" />
        </mxCell>
        <mxCell id="s9vKMt6mHFvQ5tbUXA-M-39" value="yes" style="text;html=1;align=center;verticalAlign=middle;resizable=0;points=[];autosize=1;strokeColor=none;fillColor=none;" vertex="1" parent="1">
          <mxGeometry x="420" y="3708" width="40" height="30" as="geometry" />
        </mxCell>
        <mxCell id="s9vKMt6mHFvQ5tbUXA-M-45" value="" style="edgeStyle=orthogonalEdgeStyle;rounded=0;orthogonalLoop=1;jettySize=auto;html=1;" edge="1" parent="1" source="s9vKMt6mHFvQ5tbUXA-M-41" target="s9vKMt6mHFvQ5tbUXA-M-44">
          <mxGeometry relative="1" as="geometry" />
        </mxCell>
        <mxCell id="s9vKMt6mHFvQ5tbUXA-M-67" value="" style="edgeStyle=orthogonalEdgeStyle;rounded=0;orthogonalLoop=1;jettySize=auto;html=1;" edge="1" parent="1" source="s9vKMt6mHFvQ5tbUXA-M-41" target="s9vKMt6mHFvQ5tbUXA-M-60">
          <mxGeometry relative="1" as="geometry" />
        </mxCell>
        <mxCell id="s9vKMt6mHFvQ5tbUXA-M-41" value="if&lt;div&gt;num1 % i = 0&lt;/div&gt;" style="rhombus;whiteSpace=wrap;html=1;" vertex="1" parent="1">
          <mxGeometry x="360" y="3790" width="120" height="120" as="geometry" />
        </mxCell>
        <mxCell id="s9vKMt6mHFvQ5tbUXA-M-48" value="" style="edgeStyle=orthogonalEdgeStyle;rounded=0;orthogonalLoop=1;jettySize=auto;html=1;" edge="1" parent="1" source="s9vKMt6mHFvQ5tbUXA-M-42">
          <mxGeometry relative="1" as="geometry">
            <mxPoint x="570" y="4200" as="targetPoint" />
          </mxGeometry>
        </mxCell>
        <mxCell id="s9vKMt6mHFvQ5tbUXA-M-55" value="" style="edgeStyle=orthogonalEdgeStyle;rounded=0;orthogonalLoop=1;jettySize=auto;html=1;" edge="1" parent="1" source="s9vKMt6mHFvQ5tbUXA-M-42" target="s9vKMt6mHFvQ5tbUXA-M-54">
          <mxGeometry relative="1" as="geometry" />
        </mxCell>
        <mxCell id="s9vKMt6mHFvQ5tbUXA-M-42" value="if count &amp;gt;= 3" style="rhombus;whiteSpace=wrap;html=1;" vertex="1" parent="1">
          <mxGeometry x="355" y="4140" width="130" height="120" as="geometry" />
        </mxCell>
        <mxCell id="s9vKMt6mHFvQ5tbUXA-M-46" value="" style="edgeStyle=orthogonalEdgeStyle;rounded=0;orthogonalLoop=1;jettySize=auto;html=1;" edge="1" parent="1" source="s9vKMt6mHFvQ5tbUXA-M-44" target="s9vKMt6mHFvQ5tbUXA-M-42">
          <mxGeometry relative="1" as="geometry" />
        </mxCell>
        <mxCell id="s9vKMt6mHFvQ5tbUXA-M-44" value="&lt;div&gt;count = count +1&lt;/div&gt;" style="rounded=0;whiteSpace=wrap;html=1;" vertex="1" parent="1">
          <mxGeometry x="360" y="3990" width="120" height="60" as="geometry" />
        </mxCell>
        <mxCell id="s9vKMt6mHFvQ5tbUXA-M-52" value="" style="edgeStyle=orthogonalEdgeStyle;rounded=0;orthogonalLoop=1;jettySize=auto;html=1;" edge="1" parent="1" source="s9vKMt6mHFvQ5tbUXA-M-50" target="s9vKMt6mHFvQ5tbUXA-M-51">
          <mxGeometry relative="1" as="geometry">
            <Array as="points">
              <mxPoint x="655" y="4400" />
            </Array>
          </mxGeometry>
        </mxCell>
        <mxCell id="s9vKMt6mHFvQ5tbUXA-M-50" value="num1 is not a prime number" style="shape=parallelogram;perimeter=parallelogramPerimeter;whiteSpace=wrap;html=1;fixedSize=1;" vertex="1" parent="1">
          <mxGeometry x="560" y="4160" width="190" height="70" as="geometry" />
        </mxCell>
        <mxCell id="s9vKMt6mHFvQ5tbUXA-M-51" value="end" style="ellipse;whiteSpace=wrap;html=1;" vertex="1" parent="1">
          <mxGeometry x="360" y="4360" width="130" height="80" as="geometry" />
        </mxCell>
        <mxCell id="s9vKMt6mHFvQ5tbUXA-M-57" value="" style="edgeStyle=orthogonalEdgeStyle;rounded=0;orthogonalLoop=1;jettySize=auto;html=1;" edge="1" parent="1" source="s9vKMt6mHFvQ5tbUXA-M-54" target="s9vKMt6mHFvQ5tbUXA-M-56">
          <mxGeometry relative="1" as="geometry" />
        </mxCell>
        <mxCell id="s9vKMt6mHFvQ5tbUXA-M-61" style="edgeStyle=orthogonalEdgeStyle;rounded=0;orthogonalLoop=1;jettySize=auto;html=1;exitX=0.5;exitY=0;exitDx=0;exitDy=0;entryX=0.5;entryY=1;entryDx=0;entryDy=0;" edge="1" parent="1" source="s9vKMt6mHFvQ5tbUXA-M-54" target="s9vKMt6mHFvQ5tbUXA-M-60">
          <mxGeometry relative="1" as="geometry" />
        </mxCell>
        <mxCell id="s9vKMt6mHFvQ5tbUXA-M-54" value="if count = 3 and&amp;nbsp; i&amp;nbsp; &amp;gt; 2" style="rhombus;whiteSpace=wrap;html=1;" vertex="1" parent="1">
          <mxGeometry x="145" y="4140" width="130" height="120" as="geometry" />
        </mxCell>
        <mxCell id="s9vKMt6mHFvQ5tbUXA-M-58" style="edgeStyle=orthogonalEdgeStyle;rounded=0;orthogonalLoop=1;jettySize=auto;html=1;entryX=0;entryY=0.5;entryDx=0;entryDy=0;" edge="1" parent="1" source="s9vKMt6mHFvQ5tbUXA-M-56" target="s9vKMt6mHFvQ5tbUXA-M-51">
          <mxGeometry relative="1" as="geometry" />
        </mxCell>
        <mxCell id="s9vKMt6mHFvQ5tbUXA-M-56" value="num1 is a prime number" style="shape=parallelogram;perimeter=parallelogramPerimeter;whiteSpace=wrap;html=1;fixedSize=1;" vertex="1" parent="1">
          <mxGeometry x="150" y="4370" width="120" height="60" as="geometry" />
        </mxCell>
        <mxCell id="s9vKMt6mHFvQ5tbUXA-M-62" style="edgeStyle=orthogonalEdgeStyle;rounded=0;orthogonalLoop=1;jettySize=auto;html=1;exitX=0.5;exitY=0;exitDx=0;exitDy=0;entryX=0;entryY=0.5;entryDx=0;entryDy=0;" edge="1" parent="1" source="s9vKMt6mHFvQ5tbUXA-M-60" target="s9vKMt6mHFvQ5tbUXA-M-33">
          <mxGeometry relative="1" as="geometry" />
        </mxCell>
        <mxCell id="s9vKMt6mHFvQ5tbUXA-M-60" value="i = i +1" style="rounded=0;whiteSpace=wrap;html=1;" vertex="1" parent="1">
          <mxGeometry x="150" y="3820" width="120" height="60" as="geometry" />
        </mxCell>
        <mxCell id="s9vKMt6mHFvQ5tbUXA-M-64" value="yes" style="text;html=1;align=center;verticalAlign=middle;resizable=0;points=[];autosize=1;strokeColor=none;fillColor=none;" vertex="1" parent="1">
          <mxGeometry x="485" y="4160" width="40" height="30" as="geometry" />
        </mxCell>
        <mxCell id="s9vKMt6mHFvQ5tbUXA-M-65" value="no" style="text;html=1;align=center;verticalAlign=middle;resizable=0;points=[];autosize=1;strokeColor=none;fillColor=none;" vertex="1" parent="1">
          <mxGeometry x="210" y="4090" width="40" height="30" as="geometry" />
        </mxCell>
        <mxCell id="s9vKMt6mHFvQ5tbUXA-M-66" value="yes" style="text;html=1;align=center;verticalAlign=middle;resizable=0;points=[];autosize=1;strokeColor=none;fillColor=none;" vertex="1" parent="1">
          <mxGeometry x="220" y="4280" width="40" height="30" as="geometry" />
        </mxCell>
        <mxCell id="s9vKMt6mHFvQ5tbUXA-M-68" value="yes" style="text;html=1;align=center;verticalAlign=middle;resizable=0;points=[];autosize=1;strokeColor=none;fillColor=none;" vertex="1" parent="1">
          <mxGeometry x="420" y="3910" width="40" height="30" as="geometry" />
        </mxCell>
        <mxCell id="s9vKMt6mHFvQ5tbUXA-M-69" value="no" style="text;html=1;align=center;verticalAlign=middle;resizable=0;points=[];autosize=1;strokeColor=none;fillColor=none;" vertex="1" parent="1">
          <mxGeometry x="325" y="3820" width="40" height="30" as="geometry" />
        </mxCell>
        <mxCell id="s9vKMt6mHFvQ5tbUXA-M-71" value="no" style="text;html=1;align=center;verticalAlign=middle;resizable=0;points=[];autosize=1;strokeColor=none;fillColor=none;" vertex="1" parent="1">
          <mxGeometry x="325" y="4170" width="40" height="30" as="geometry" />
        </mxCell>
      </root>
    </mxGraphModel>
  </diagram>
</mxfile>
